<?xml version="1.0" encoding="UTF-8"?>
<svg xmlns="http://www.w3.org/2000/svg" viewBox="0 0 300 300">
  <defs>
    <style>.cls-1{fill:none;}.cls-2{fill-rule:evenodd;}</style>
  </defs>
  <g id="Layer_2" data-name="Layer 2">
    <g id="Layer_1-2" data-name="Layer 1">
      <g id="Layer_1-3" data-name="Layer_1">
        <g id="_1544248686816" data-name=" 1544248686816">
          <rect class="cls-1" width="300" height="300"></rect>
          <path class="cls-2" d="M37.32,145.4l.28.86c1.28,5.6.44,6.15,3.52,14.36A56.59,56.59,0,0,0,47.64,173c10.6,15.62,29.7,25.49,49.85,25.54,6.29,0,12.61,0,18.9,0,10.85,0,9.79-1.18,9.79,9.6h21.29c0-5.58.08-11.25-.07-16.8-.45-14.73-6.42-14.68-19.47-14.66-5.72,0-11.44,0-17.14,0-11.52.08-20.85.79-30.32-3.67A37.08,37.08,0,0,1,63,156.2c-5-9.89-4.36-17.17-4.34-29.57l0-68.24c0-11.22-.4-23.19,0-34.31,6.68-.62,39.25-.15,48.6-.15,4.16,0,21.88-.25,24.47.12,7.77,1.11,9.2,8.32,6.36,15.47-3.85,9.62-14.18,20.13-20.42,28.22-5.92,7.7-9.82,14.06-13.33,23.41-1.25,3.33-1.72,6.29-2.78,9.4-13.5,1.68-23.14,7.38-30,18.65-7.2,11.84-4.66,28.57,2.67,38,3.06,3.94,8.09,8.61,13.79,10.73,7.5,2.81,13.69,2.17,22.45,2.17,8.16,0,16.33,0,24.49,0,5.58,0,10,.59,13.52,4.56,1,1.06,1.66,2.71,2.59,3.55,1.66-2.07,2.08-4.09,5.73-6,3.1-1.65,6-2,10-2.09,8.12-.15,16.38,0,24.5,0,8.29,0,15.44.66,22.52-2.12,11.27-4.44,20.3-16.48,20.9-28.1.76-14.83-4.22-25.46-15.84-33.18-5.82-3.87-10.36-4.81-18.31-6.24-3-8.24-1.16-6.61-6.48-17.64C185.44,64.93,171,55.55,164,39.45c-3.08-7.16-1.2-14.19,6-15.37,3.28-.55,8.69-.2,12.19-.2,9.94-.05,56.86-.4,61.28.15-.27,22.72.12,45.54,0,68.26,0,7.1.4,46-.24,50.84-1.83,13.37-9.65,23.66-21.54,29.53-9.84,4.86-18.23,4-30.34,4-7.13,0-27.11-1.26-31.68,2.17C156.3,181.39,155,185,154.8,191c-.2,5.63-.05,11.47-.05,17.15H176c0-1.75,0-3.51,0-5.26-.05-4.26.64-4.34,5.23-4.34,23.11.05,36.53,2.1,56.66-9.67,12.78-7.47,22.48-21.81,25.56-36.36.37-1.73.89-6.64,1.41-7.75V2H163.33c-.93.55-2.73.69-3.77,1.09-4.66,1.68-5.9,3.7-8.41,6.39-1.11-1-.94-1.58-2.27-2.74-4.94-4.29-7.53-3.75-9.25-4.71H37.42V145.4ZM122.16,125c-2.91-.32-5.94-2.81-15.57-2.86-8.7,0-15.76,3.53-17.58,10.29-2,7.45,1.94,15.79,11.27,15.76h36.39c5.47,0,8.88,1.65,11.76,5.45A24.18,24.18,0,0,0,151,157c5.43-5.4,4.89-8.76,17.84-8.78l32.88,0c12.07,0,15.13-14.63,7.87-21.49-10.11-9.54-27.36-2.17-29.87-1.87.32-18.5.25-25.58-9.82-40.68-4-6-9.5-11.67-14.18-17.64-1.21-1.55-3.51-5-4.72-6.19-1.21,1.13-1.21,1.8-2.34,3.31C147.77,64.85,147,65.79,146,67c-13,16.55-22.67,23.26-23.76,46.3-.15,3,.39,9.42-.1,11.72Z"></path>
          <path d="M178.11,274.37a26.74,26.74,0,0,1-7.23-1.88c-2-1.08-3.82-2.36-5.7-3.6-.61-.42-1.08-.32-1.35.4a63.38,63.38,0,0,1-2.15,6c-2.24,4.78-6.88,12-13.22,9.79-9.13-3.23-2.81-30.34-2-40.46.18-2.27,3.14-11,4.82-12.18.59,1.48.24,1.45,0,3-1,7.55-2,15.1-2.91,22.65-.1.93.81.89,1.31.39a341.57,341.57,0,0,0,31.08-36.19c.17-.22.52-.32.76-.49.1.27.35.57.3.81a30.42,30.42,0,0,1-1.11,4.47c-4.1,10.95-17.52,22.69-25.43,32-.52.6-.23,1.16.54,1.09a25.47,25.47,0,0,1,8,1.13,7.49,7.49,0,0,0,.79.18c3.58.61,7.15,1.3,10.73,1.8,27.61,3.77,48.18-.45,72.23-17.44a58.2,58.2,0,0,0,7.75-6.71c1.4-1.41,1.77-3.16,2.12-5,.49-2.66,2.66-5.74,4.07-8.09.49-.81.86-1.55,1.75-1.87,1.09,2.86-2.56,13.39-4.17,16.23a19,19,0,0,1-2,3.28c-19.43,21.59-49.8,34.07-79,30.64ZM149,268.89v.47c0,4.34,4.41,5.85,7.79,4.19a6.81,6.81,0,0,0,2.64-2.76,2.77,2.77,0,0,0-1.31-4.36C155.44,265.64,148.56,264,149,268.89Z"></path>
          <path d="M271.36,274.15c-1,2.46-2,5-4,7-2.3,2.22-6.69,3.38-9.67,4.44-.67.25-1.14-.12-.87-.82.55-1.52,6.86-6.53,8.39-7.89s2.17-2.71.94-4.64a16.83,16.83,0,0,0-4-4.31,1.19,1.19,0,0,1-.35-1.61c.84-1.82,1.66-3.67,2.52-5.5.47-1,1-2,1.5-2.93a.69.69,0,0,1,1.11-.18c2.15,1.58,4.27,3.28,5.14,5.87s.41,8.07-.65,10.61Z"></path>
          <path d="M248,282.76c.52-2.08,1.11-3.53,1.43-5.5.49-3,.59-6.54.86-9.8a57,57,0,0,1,.82-6.39,57.08,57.08,0,0,1,3.75-9.62c.27-.47,1.43-.59,1.23.42-1,5.67-.84,12.88-1.51,18.9-.46,4.36-3.08,11.59-5.72,14.92-2.1,2.64-1-2.27-.81-2.93Z"></path>
          <path d="M158.57,242.45c-.69,0-.84-.45-.56-1a21.48,21.48,0,0,1,3.5-4.54c2.22-2.54,4.41-5.11,6.63-7.65.69-.79,1.61-.69,1.29.18-1.38,3.6-4,6.29-6.66,9a33.31,33.31,0,0,1-4.2,4Z"></path>
          <path d="M251.85,221.73a4.13,4.13,0,0,1,0,2.12,7.89,7.89,0,0,1-1.11,2.27,10.7,10.7,0,0,1-1,1.45c-.37.45-.74.84-1.16,1.26a4.15,4.15,0,0,1-.55.52,9.3,9.3,0,0,1-.81.59,3,3,0,0,1-.82.42c-.27.07-.44,0-.56-.07-.84-.7-1.68-1.39-2.49-2.08a21.81,21.81,0,0,0-2.72-2c-.15-.12-.24-.22-.22-.35a1,1,0,0,1,.2-.46l5.62-8.56c.17-.25.32-.35.5-.35a.85.85,0,0,1,.51.2,15.78,15.78,0,0,1,1.48.93,11.72,11.72,0,0,1,1.36,1.14,8.08,8.08,0,0,1,1.11,1.33,5,5,0,0,1,.69,1.61Z"></path>
          <path d="M107.8,223.77a4,4,0,0,1,0,2.12,7.77,7.77,0,0,1-1.11,2.27,10.26,10.26,0,0,1-1,1.46c-.37.44-.74.84-1.16,1.26a3.94,3.94,0,0,1-.54.52c-.27.19-.52.41-.81.59a3.54,3.54,0,0,1-.82.42c-.27.07-.44.05-.56-.08-.84-.69-1.68-1.38-2.5-2.07a20.07,20.07,0,0,0-2.71-2c-.15-.13-.25-.22-.22-.35a1,1,0,0,1,.2-.47l5.62-8.56c.17-.24.32-.34.49-.34a1.07,1.07,0,0,1,.52.19c.49.28,1,.6,1.48.94a12.62,12.62,0,0,1,1.36,1.14,8.08,8.08,0,0,1,1.11,1.33,5,5,0,0,1,.69,1.6Z"></path>
          <path d="M56.74,255a4.13,4.13,0,0,1,0,2.12,7.3,7.3,0,0,1-1.11,2.27,10.7,10.7,0,0,1-1,1.45c-.37.45-.74.84-1.16,1.26a3.93,3.93,0,0,1-.54.52,9.45,9.45,0,0,1-.82.59,3.14,3.14,0,0,1-.81.42.54.54,0,0,1-.57-.07c-.84-.69-1.68-1.38-2.49-2.07a21.47,21.47,0,0,0-2.71-2c-.15-.12-.25-.22-.23-.34a1.18,1.18,0,0,1,.2-.47l5.62-8.56c.18-.25.33-.35.5-.35a1,1,0,0,1,.52.2,16.49,16.49,0,0,1,1.48.94,12.42,12.42,0,0,1,1.35,1.13A9.79,9.79,0,0,1,56,253.42a4.85,4.85,0,0,1,.69,1.61Z"></path>
          <path d="M210.3,227.35c0,.12.08.22.13.32a1.84,1.84,0,0,0,.12.32l.1.32a.48.48,0,0,0,0,.2.27.27,0,0,0,0,.15v.15s0,.07,0,.09v.1a4.79,4.79,0,0,1-.15,1.24v.19l-.14.42-.1.2a.69.69,0,0,0-.05.17.25.25,0,0,1-.1.18l-.2.41-.42.67-.59.89c-.12.17-.25.37-.39.54s-.27.37-.42.54-.37.45-.55.65a5.47,5.47,0,0,1-.59.59l-.37.34-.17.15a2.52,2.52,0,0,1-.72.47.75.75,0,0,1-.51,0,.44.44,0,0,1-.23-.09.83.83,0,0,1-.14-.13l-.84-.66-.37-.32-2.07-1.68-.25-.17c-.49-.37-1-.72-1.43-1-.15-.12-.22-.22-.22-.34a1,1,0,0,1,.17-.45l5.38-8.19c.17-.24.37-.37.56-.32a.18.18,0,0,1,.08,0l.17.07a.17.17,0,0,0,.12,0l.92.59c.32.2.61.4.91.62l.39.32c.25.22.5.45.69.64a4.17,4.17,0,0,1,.6.72l.22.27.32.57.07.15Z"></path>
          <path d="M216.57,214.94a3.86,3.86,0,0,1,0,2.05,7.73,7.73,0,0,1-1,2.17c-.42.62-.82,1.18-1.21,1.73a15.68,15.68,0,0,1-1.36,1.48,4.69,4.69,0,0,1-.81.71,2.69,2.69,0,0,1-.59.27.83.83,0,0,1-.45,0,2.48,2.48,0,0,1-.32-.17c-.81-.67-1.63-1.31-2.42-2a19.55,19.55,0,0,0-2.59-1.88.68.68,0,0,1-.17-.37,1,1,0,0,1,.17-.42l5.33-8.24c.18-.19.32-.32.47-.29a.84.84,0,0,1,.49.2c.47.29.94.59,1.44.88a9.61,9.61,0,0,1,1.33,1.09,8.79,8.79,0,0,1,1.06,1.28,4.73,4.73,0,0,1,.64,1.53Z"></path>
          <path d="M221.43,227.65a3.75,3.75,0,0,1,0,2,7.83,7.83,0,0,1-1,2.19c-.4.62-.82,1.19-1.21,1.71a15.88,15.88,0,0,1-1.36,1.5,3,3,0,0,1-.81.69,2.4,2.4,0,0,1-.59.27.71.71,0,0,1-.42,0,1.38,1.38,0,0,1-.32-.17c-.82-.65-1.63-1.31-2.4-2a20.17,20.17,0,0,0-2.59-1.87,1.16,1.16,0,0,1-.17-.37,1,1,0,0,1,.17-.42L216,223c.14-.22.32-.32.47-.29a1,1,0,0,1,.51.19c.47.3.94.57,1.41.89a9.63,9.63,0,0,1,1.31,1.06,9.19,9.19,0,0,1,1.06,1.29A4,4,0,0,1,221.43,227.65Z"></path>
          <path d="M144.14,229.13c.22-.32.4-.4.49-.25a.88.88,0,0,1,.08.64,11.16,11.16,0,0,1-.35,1.7c-.17.69-.42,1.58-.76,2.64a18,18,0,0,1-.87,2.2,9.49,9.49,0,0,1-1.13,1.8,5,5,0,0,1-1.43,1.23,3.51,3.51,0,0,1-1.75.52,2.81,2.81,0,0,0-.87.44,8.79,8.79,0,0,0-1.08.84c-.4.32-.77.64-1.16,1s-.74.62-1,.81a10.56,10.56,0,0,1-1.45.89,3.38,3.38,0,0,1-1.31.37,3.29,3.29,0,0,1-1.28-.12,6.18,6.18,0,0,1-1.38-.64,3.28,3.28,0,0,0-2.08-.42,5.26,5.26,0,0,0-2.12.76,8.34,8.34,0,0,0-1.9,1.56,11.67,11.67,0,0,0-1.5,2,3,3,0,0,1-1.24.28,4.29,4.29,0,0,1-1.8-.28,35.46,35.46,0,0,1,2.57-3.7,31.24,31.24,0,0,1,2.91-3.2,18.31,18.31,0,0,1,3.11-2.42,11.14,11.14,0,0,1,3.28-1.36,2.22,2.22,0,0,1,1.11,0,10,10,0,0,1,1.21.37l1.18.45a2.58,2.58,0,0,0,1.06.17,3.87,3.87,0,0,0,2.15-.94,14.73,14.73,0,0,0,2-2.39,1.35,1.35,0,0,1,.57-.54.41.41,0,0,1,.39.05,2.15,2.15,0,0,1,.42.22.79.79,0,0,0,.65,0,2,2,0,0,0,1.11-.71,11,11,0,0,0,.93-1.34c.27-.49.52-1,.74-1.48s.4-.88.55-1.15Z"></path>
          <path d="M116.54,249.63l1.7-2.59a14.39,14.39,0,0,1,1.63-.3,2.2,2.2,0,0,1,.79.07,2.62,2.62,0,0,1,.61.23c0,.83.59,1.8,1.75,2.91s1.78,2,1.78,2.64a5.33,5.33,0,0,1-1.58,3.5A4.25,4.25,0,0,1,120,258a11.56,11.56,0,0,1-2.47-.49,9.39,9.39,0,0,0-2.07-.52,2.31,2.31,0,0,0-1.48.45,16.47,16.47,0,0,0-2.47,2.34c-.91,1.06-1.55,1.87-1.92,2.37-.91,1.06-1.51,1.75-1.83,2a3.58,3.58,0,0,1-2.51,1.25,2.16,2.16,0,0,1-.74-1,4.89,4.89,0,0,1-.4-1.71,8.61,8.61,0,0,1,.18-2.19,9.65,9.65,0,0,1,1-2.52,5.66,5.66,0,0,1,1.8.37,2.18,2.18,0,0,0,1.48.13c.42-.13,1.11-.87,2.07-2.17q4.22-5.77,5.92-6.79Z"></path>
          <path d="M105.29,265.51a5.71,5.71,0,0,0-2.57,0c-1.55.62-3.28,2.4-5.23,5.36-2.42,3.62-4.93,5.45-7.55,5.45a7.05,7.05,0,0,1-6.34-3.63A16.7,16.7,0,0,1,81.46,264a39,39,0,0,1,2.14-5.72A7.24,7.24,0,0,1,86.34,255q-.15,9.15,7.45,9.16a7.93,7.93,0,0,0,5.38-2c1.53-1.34,2.64-2.35,3.38-3a4.7,4.7,0,0,1,2.76-1.06,5.42,5.42,0,0,1,.87,3.46,6.84,6.84,0,0,1-.87,3.94Z"></path>
          <path d="M86.32,255a16.69,16.69,0,0,1-1.68,6.41c-.94,1.78-2,2.64-3.18,2.64,0-1,.32-3.92.93-8.93s1.09-8.53,1.41-10.7.67-4.44,1.06-6.86.79-4.37,1.19-5.85c.41-1.23.88-2.47,1.38-3.75s1-2.49,1.53-3.75c.34-.54.56-.47.66.25-.64,4.19-1.21,8.51-1.75,13s-.89,7.73-1.06,9.65-.27,3.08-.27,3.4c-.12,2.08-.2,3.53-.2,4.42Z"></path>
          <path d="M75.19,248.05c-.07.61-.15,1.26-.2,1.87a78.21,78.21,0,0,1-4.83,21.69,57,57,0,0,1-6.39,11.89q-9.18,12.44-22.05,12.38a15.55,15.55,0,0,1-10.39-4.24c-2.89-2.64-4.39-6.39-4.54-11.23q0-11.54,7.11-25.36l1.43-2.78c.17-.05.24.24.19.91a9.11,9.11,0,0,1-.84,2.76c-.56,1.41-1.15,2.84-1.72,4.29s-1.06,2.89-1.51,4.32a33.69,33.69,0,0,0-1,4.19,16.73,16.73,0,0,0-.25,3.95A11.09,11.09,0,0,0,35.08,281a18.57,18.57,0,0,0,9.57,2.86A27.34,27.34,0,0,0,58.81,280a26.8,26.8,0,0,0,8.12-8.41q5-6.84,4.26-18.72a16.51,16.51,0,0,1,.52-4.54c.4-1.36,1.46-4.34,3.21-9a6.48,6.48,0,0,1,.91-1.95c.22-.22.4-.24.5-.12a1.83,1.83,0,0,1,0,1.11l-.57,3.92-.57,5.68Z"></path>
          <path d="M140,268.28a16.44,16.44,0,0,1-.77,4.73,22.84,22.84,0,0,1-6.07,9.87,6.81,6.81,0,0,1-4.61,1.78c-2.66,0-4-1.48-4-4.42a9.68,9.68,0,0,1,.62-3.26,15.2,15.2,0,0,1,1.65-3.33c.67-1.06,1.26-1.92,1.73-2.66-.47-.12-.76-.22-.89-.25l-.24-.05c-.08-.24,1.35-3.18,4.26-8.73.45-.81.79-1.26,1.06-1.26a4.3,4.3,0,0,1,1.66.62,20.73,20.73,0,0,1,2.39,1.6,9.8,9.8,0,0,1,2.12,2.2,6.72,6.72,0,0,1,1.09,3.13Zm-4.64,7.62a3.1,3.1,0,0,0-1.19-2.49,10.2,10.2,0,0,0-1.65-1.14,4.71,4.71,0,0,0-1.8-.71c-.37,0-1,.61-1.85,1.87a5.67,5.67,0,0,0-1.31,3.11c0,1.6,1.06,2.42,3.19,2.42a6,6,0,0,0,3-.94c1.06-.62,1.6-1.33,1.6-2.12Z"></path>
        </g>
      </g>
    </g>
  </g>
</svg>
